<svg width="631" height="961" viewBox="0 0 631 961" fill="none" xmlns="http://www.w3.org/2000/svg">
<path d="M300.124 352.024C289.253 376.021 281.836 424.524 281.836 480.449C281.836 537.493 289.557 586.86 300.784 610.297C305.204 619.652 310.284 624.94 315.618 624.94C320.952 624.94 325.778 619.856 330.502 610.297C333.672 614.217 337.064 617.952 340.662 621.483C367.325 647.75 403.221 662.5 440.635 662.562H486.761C524.485 662.562 560.664 677.56 587.339 704.257C614.014 730.954 629 767.163 629 804.918V818.645C629 856.4 614.014 892.608 587.339 919.305C560.664 946.002 524.485 961 486.761 961H472.842C435.118 961 398.939 946.002 372.264 919.305C345.589 892.608 330.603 856.4 330.603 818.645V775.43C330.586 756.568 326.832 737.897 319.56 720.496C312.288 703.095 301.642 687.31 288.237 674.052L286.103 671.968C276.428 662.348 265.387 654.21 253.337 647.818C232.698 636.696 209.621 630.878 186.18 630.888H142.239C104.515 630.888 68.3357 615.89 41.6608 589.193C14.9858 562.497 0 526.288 0 488.533V474.857C0 437.102 14.9858 400.893 41.6608 374.196C68.3357 347.499 104.515 332.501 142.239 332.501H184.199C208.512 332.507 232.421 326.276 253.642 314.402C265.275 307.881 275.944 299.77 285.341 290.303L289.507 286.134C300.003 275.452 308.731 263.163 315.364 249.732C325.353 229.91 330.572 208.025 330.603 185.824V142.355C330.603 104.6 345.589 68.3917 372.264 41.6949C398.939 14.9981 435.118 0 472.842 0H486.507C524.231 0 560.41 14.9981 587.085 41.6949C613.76 68.3917 628.746 104.6 628.746 142.355V156.032C628.746 193.786 613.76 229.995 587.085 256.692C560.41 283.389 524.231 298.387 486.507 298.387H442.362C419.68 298.363 397.325 303.804 377.187 314.249C363.875 321.033 351.747 329.927 341.271 340.585L339.239 342.67C336.293 345.618 333.499 348.72 330.807 351.973C326.184 341.805 320.901 336.009 315.567 336.009C310.233 336.009 304.594 341.805 300.124 352.024Z" fill="#0018E7"/>
<path d="M631 474.831V488.508C631 526.265 616.01 562.475 589.329 589.174C562.648 615.872 526.46 630.871 488.727 630.871H444.724C421.261 630.861 398.162 636.679 377.5 647.802C365.454 654.206 354.413 662.343 344.726 671.953L342.592 674.037C329.156 687.283 318.479 703.063 311.178 720.466C303.878 737.868 300.1 756.547 300.062 775.42V818.637C300.062 856.394 285.073 892.605 258.391 919.303C231.71 946.001 195.522 961 157.789 961H144.273C106.54 961 70.3522 946.001 43.6709 919.303C16.9895 892.605 2 856.394 2 818.637V804.909C2 767.152 16.9895 730.942 43.6709 704.244C70.3522 677.545 106.54 662.546 144.273 662.546H190.41C211.488 662.504 232.296 657.796 251.341 648.76C270.387 639.723 287.198 626.582 300.57 610.279C304.991 619.634 310.072 624.922 315.407 624.922C320.743 624.922 325.57 619.838 330.295 610.279C341.525 586.84 349.248 537.47 349.248 480.424C349.248 424.495 341.779 375.99 330.905 351.992C326.281 341.823 320.997 336.027 315.662 336.027C310.326 336.027 304.788 341.773 300.418 351.992C297.802 348.749 295.021 345.643 292.085 342.688L289.951 340.603C276.72 327.231 260.971 316.617 243.615 309.373C226.259 302.13 207.64 298.401 188.835 298.403H144.273C106.54 298.403 70.3522 283.404 43.6709 256.706C16.9895 230.007 2 193.797 2 156.04V142.363C2 104.606 16.9895 68.3953 43.6709 41.6971C70.3522 14.9989 106.54 0 144.273 0H157.789C195.522 0 231.71 14.9989 258.391 41.6971C285.073 68.3953 300.062 104.606 300.062 142.363V185.834C300.19 223.342 314.981 259.311 341.271 286.048L345.437 290.217C358.668 303.589 374.417 314.203 391.773 321.447C409.129 328.69 427.748 332.419 446.553 332.417H488.574C507.275 332.397 525.796 336.066 543.078 343.215C560.361 350.364 576.065 360.851 589.293 374.078C602.521 387.305 613.014 403.012 620.17 420.3C627.326 437.588 631.007 456.118 631 474.831V474.831Z" fill="#0018E7"/>
</svg>
